<svg width="356" height="15" viewBox="0 0 356 15" fill="none" xmlns="http://www.w3.org/2000/svg">
<path d="M0.752391 6.114C0.752391 5.162 0.967057 4.308 1.39639 3.552C1.82572 2.78667 2.40906 2.18933 3.14639 1.76C3.89306 1.33067 4.71906 1.116 5.62439 1.116C6.68839 1.116 7.61706 1.37267 8.41039 1.886C9.20372 2.39933 9.78239 3.12733 10.1464 4.07H8.62039C8.34972 3.482 7.95772 3.02933 7.44439 2.712C6.94039 2.39467 6.33372 2.236 5.62439 2.236C4.94306 2.236 4.33172 2.39467 3.79039 2.712C3.24906 3.02933 2.82439 3.482 2.51639 4.07C2.20839 4.64867 2.05439 5.33 2.05439 6.114C2.05439 6.88867 2.20839 7.57 2.51639 8.158C2.82439 8.73667 3.24906 9.18467 3.79039 9.502C4.33172 9.81933 4.94306 9.978 5.62439 9.978C6.33372 9.978 6.94039 9.824 7.44439 9.516C7.95772 9.19867 8.34972 8.746 8.62039 8.158H10.1464C9.78239 9.09133 9.20372 9.81467 8.41039 10.328C7.61706 10.832 6.68839 11.084 5.62439 11.084C4.71906 11.084 3.89306 10.874 3.14639 10.454C2.40906 10.0247 1.82572 9.432 1.39639 8.676C0.967057 7.92 0.752391 7.066 0.752391 6.114ZM15.3888 11.126C14.6702 11.126 14.0168 10.9627 13.4288 10.636C12.8502 10.3093 12.3928 9.84733 12.0568 9.25C11.7302 8.64333 11.5668 7.94333 11.5668 7.15C11.5668 6.366 11.7348 5.67533 12.0708 5.078C12.4162 4.47133 12.8828 4.00933 13.4708 3.692C14.0588 3.36533 14.7168 3.202 15.4448 3.202C16.1728 3.202 16.8308 3.36533 17.4188 3.692C18.0068 4.00933 18.4688 4.46667 18.8048 5.064C19.1502 5.66133 19.3228 6.35667 19.3228 7.15C19.3228 7.94333 19.1455 8.64333 18.7908 9.25C18.4455 9.84733 17.9742 10.3093 17.3768 10.636C16.7795 10.9627 16.1168 11.126 15.3888 11.126ZM15.3888 10.006C15.8462 10.006 16.2755 9.89867 16.6768 9.684C17.0782 9.46933 17.4002 9.14733 17.6428 8.718C17.8948 8.28867 18.0208 7.766 18.0208 7.15C18.0208 6.534 17.8995 6.01133 17.6568 5.582C17.4142 5.15267 17.0968 4.83533 16.7048 4.63C16.3128 4.41533 15.8882 4.308 15.4308 4.308C14.9642 4.308 14.5348 4.41533 14.1428 4.63C13.7602 4.83533 13.4522 5.15267 13.2188 5.582C12.9855 6.01133 12.8688 6.534 12.8688 7.15C12.8688 7.77533 12.9808 8.30267 13.2048 8.732C13.4382 9.16133 13.7462 9.48333 14.1288 9.698C14.5115 9.90333 14.9315 10.006 15.3888 10.006ZM22.2719 4.742C22.5239 4.30333 22.8973 3.93933 23.3919 3.65C23.8959 3.35133 24.4793 3.202 25.1419 3.202C25.8233 3.202 26.4393 3.36533 26.9899 3.692C27.5499 4.01867 27.9886 4.48067 28.3059 5.078C28.6233 5.666 28.7819 6.352 28.7819 7.136C28.7819 7.91067 28.6233 8.60133 28.3059 9.208C27.9886 9.81467 27.5499 10.286 26.9899 10.622C26.4393 10.958 25.8233 11.126 25.1419 11.126C24.4886 11.126 23.9099 10.9813 23.4059 10.692C22.9113 10.3933 22.5333 10.0247 22.2719 9.586V14.64H20.9979V3.328H22.2719V4.742ZM27.4799 7.136C27.4799 6.55733 27.3633 6.05333 27.1299 5.624C26.8966 5.19467 26.5793 4.868 26.1779 4.644C25.7859 4.42 25.3519 4.308 24.8759 4.308C24.4093 4.308 23.9753 4.42467 23.5739 4.658C23.1819 4.882 22.8646 5.21333 22.6219 5.652C22.3886 6.08133 22.2719 6.58067 22.2719 7.15C22.2719 7.72867 22.3886 8.23733 22.6219 8.676C22.8646 9.10533 23.1819 9.43667 23.5739 9.67C23.9753 9.894 24.4093 10.006 24.8759 10.006C25.3519 10.006 25.7859 9.894 26.1779 9.67C26.5793 9.43667 26.8966 9.10533 27.1299 8.676C27.3633 8.23733 27.4799 7.724 27.4799 7.136ZM37.0669 3.328L32.4469 14.612H31.1309L32.6429 10.916L29.5489 3.328H30.9629L33.3709 9.544L35.7509 3.328H37.0669ZM39.6215 4.574C39.8455 4.13533 40.1629 3.79467 40.5735 3.552C40.9935 3.30933 41.5022 3.188 42.0995 3.188V4.504H41.7635C40.3355 4.504 39.6215 5.27867 39.6215 6.828V11H38.3475V3.328H39.6215V4.574ZM44.2282 2.082C43.9855 2.082 43.7802 1.998 43.6122 1.83C43.4442 1.662 43.3602 1.45667 43.3602 1.214C43.3602 0.971333 43.4442 0.766 43.6122 0.598C43.7802 0.43 43.9855 0.345999 44.2282 0.345999C44.4615 0.345999 44.6575 0.43 44.8162 0.598C44.9842 0.766 45.0682 0.971333 45.0682 1.214C45.0682 1.45667 44.9842 1.662 44.8162 1.83C44.6575 1.998 44.4615 2.082 44.2282 2.082ZM44.8442 3.328V11H43.5702V3.328H44.8442ZM50.1795 3.202C50.8422 3.202 51.4208 3.34667 51.9155 3.636C52.4195 3.92533 52.7928 4.28933 53.0355 4.728V3.328H54.3235V11.168C54.3235 11.868 54.1742 12.4887 53.8755 13.03C53.5768 13.5807 53.1475 14.01 52.5875 14.318C52.0368 14.626 51.3928 14.78 50.6555 14.78C49.6475 14.78 48.8075 14.542 48.1355 14.066C47.4635 13.59 47.0668 12.9413 46.9455 12.12H48.2055C48.3455 12.5867 48.6348 12.96 49.0735 13.24C49.5122 13.5293 50.0395 13.674 50.6555 13.674C51.3555 13.674 51.9248 13.4547 52.3635 13.016C52.8115 12.5773 53.0355 11.9613 53.0355 11.168V9.558C52.7835 10.006 52.4102 10.3793 51.9155 10.678C51.4208 10.9767 50.8422 11.126 50.1795 11.126C49.4982 11.126 48.8775 10.958 48.3175 10.622C47.7668 10.286 47.3328 9.81467 47.0155 9.208C46.6982 8.60133 46.5395 7.91067 46.5395 7.136C46.5395 6.352 46.6982 5.666 47.0155 5.078C47.3328 4.48067 47.7668 4.01867 48.3175 3.692C48.8775 3.36533 49.4982 3.202 50.1795 3.202ZM53.0355 7.15C53.0355 6.57133 52.9188 6.06733 52.6855 5.638C52.4522 5.20867 52.1348 4.882 51.7335 4.658C51.3415 4.42467 50.9075 4.308 50.4315 4.308C49.9555 4.308 49.5215 4.42 49.1295 4.644C48.7375 4.868 48.4248 5.19467 48.1915 5.624C47.9582 6.05333 47.8415 6.55733 47.8415 7.136C47.8415 7.724 47.9582 8.23733 48.1915 8.676C48.4248 9.10533 48.7375 9.43667 49.1295 9.67C49.5215 9.894 49.9555 10.006 50.4315 10.006C50.9075 10.006 51.3415 9.894 51.7335 9.67C52.1348 9.43667 52.4522 9.10533 52.6855 8.676C52.9188 8.23733 53.0355 7.72867 53.0355 7.15ZM60.2844 3.188C60.8631 3.188 61.3858 3.314 61.8524 3.566C62.3191 3.80867 62.6831 4.17733 62.9444 4.672C63.2151 5.16667 63.3504 5.76867 63.3504 6.478V11H62.0904V6.66C62.0904 5.89467 61.8991 5.31133 61.5164 4.91C61.1338 4.49933 60.6111 4.294 59.9484 4.294C59.2764 4.294 58.7398 4.504 58.3384 4.924C57.9464 5.344 57.7504 5.95533 57.7504 6.758V11H56.4764V0.64H57.7504V4.42C58.0024 4.028 58.3478 3.72467 58.7864 3.51C59.2344 3.29533 59.7338 3.188 60.2844 3.188ZM66.9855 4.378V8.9C66.9855 9.27333 67.0648 9.53933 67.2235 9.698C67.3822 9.84733 67.6575 9.922 68.0495 9.922H68.9875V11H67.8395C67.1302 11 66.5982 10.8367 66.2435 10.51C65.8888 10.1833 65.7115 9.64667 65.7115 8.9V4.378H64.7175V3.328H65.7115V1.396H66.9855V3.328H68.9875V4.378H66.9855ZM78.7435 1.144C79.6862 1.144 80.5262 1.35867 81.2635 1.788C82.0009 2.208 82.5702 2.796 82.9715 3.552C83.3822 4.29867 83.5875 5.15267 83.5875 6.114C83.5875 7.07533 83.3822 7.934 82.9715 8.69C82.5702 9.43667 82.0009 10.0247 81.2635 10.454C80.5262 10.874 79.6862 11.084 78.7435 11.084C77.7915 11.084 76.9469 10.874 76.2095 10.454C75.4722 10.0247 74.8982 9.43667 74.4875 8.69C74.0769 7.934 73.8715 7.07533 73.8715 6.114C73.8715 5.15267 74.0769 4.29867 74.4875 3.552C74.8982 2.796 75.4722 2.208 76.2095 1.788C76.9469 1.35867 77.7915 1.144 78.7435 1.144ZM78.7435 1.704C77.8755 1.704 77.1195 1.89067 76.4755 2.264C75.8315 2.628 75.3369 3.14133 74.9915 3.804C74.6462 4.46667 74.4735 5.23667 74.4735 6.114C74.4735 6.982 74.6462 7.752 74.9915 8.424C75.3369 9.08667 75.8315 9.60467 76.4755 9.978C77.1195 10.3513 77.8755 10.538 78.7435 10.538C79.6022 10.538 80.3489 10.3513 80.9835 9.978C81.6275 9.60467 82.1222 9.08667 82.4675 8.424C82.8129 7.752 82.9855 6.982 82.9855 6.114C82.9855 5.23667 82.8129 4.46667 82.4675 3.804C82.1222 3.14133 81.6275 2.628 80.9835 2.264C80.3489 1.89067 79.6022 1.704 78.7435 1.704ZM78.7155 2.866C78.1555 2.866 77.6422 2.99667 77.1755 3.258C76.7182 3.51933 76.3542 3.89733 76.0835 4.392C75.8129 4.87733 75.6775 5.44667 75.6775 6.1C75.6775 6.75333 75.8129 7.32733 76.0835 7.822C76.3542 8.30733 76.7182 8.68533 77.1755 8.956C77.6422 9.21733 78.1555 9.348 78.7155 9.348C79.4155 9.348 80.0222 9.16133 80.5355 8.788C81.0489 8.40533 81.3989 7.89667 81.5855 7.262H80.4095C80.1295 8.03667 79.5649 8.424 78.7155 8.424C78.1555 8.424 77.6982 8.22333 77.3435 7.822C76.9889 7.42067 76.8115 6.85133 76.8115 6.114C76.8115 5.36733 76.9889 4.79333 77.3435 4.392C77.6982 3.99067 78.1555 3.79 78.7155 3.79C79.1262 3.79 79.4809 3.89267 79.7795 4.098C80.0782 4.294 80.2882 4.57867 80.4095 4.952H81.5855C81.4082 4.28933 81.0629 3.776 80.5495 3.412C80.0362 3.048 79.4249 2.866 78.7155 2.866ZM84.9874 9.978C86.1728 9.026 87.1014 8.24667 87.7734 7.64C88.4454 7.024 89.0101 6.38467 89.4674 5.722C89.9341 5.05 90.1674 4.392 90.1674 3.748C90.1674 3.14133 90.0181 2.66533 89.7194 2.32C89.4301 1.96533 88.9588 1.788 88.3054 1.788C87.6708 1.788 87.1761 1.98867 86.8214 2.39C86.4761 2.782 86.2894 3.30933 86.2614 3.972H85.0294C85.0668 2.92667 85.3841 2.11933 85.9814 1.55C86.5788 0.980666 87.3488 0.695999 88.2914 0.695999C89.2528 0.695999 90.0134 0.961999 90.5734 1.494C91.1428 2.026 91.4274 2.75867 91.4274 3.692C91.4274 4.46667 91.1941 5.22267 90.7274 5.96C90.2701 6.688 89.7474 7.332 89.1594 7.892C88.5714 8.44267 87.8201 9.08667 86.9054 9.824H91.7214V10.888H84.9874V9.978ZM93.1942 5.834C93.1942 4.22867 93.4555 2.978 93.9782 2.082C94.5008 1.17667 95.4155 0.724 96.7222 0.724C98.0195 0.724 98.9295 1.17667 99.4522 2.082C99.9748 2.978 100.236 4.22867 100.236 5.834C100.236 7.46733 99.9748 8.73667 99.4522 9.642C98.9295 10.5473 98.0195 11 96.7222 11C95.4155 11 94.5008 10.5473 93.9782 9.642C93.4555 8.73667 93.1942 7.46733 93.1942 5.834ZM98.9762 5.834C98.9762 5.022 98.9202 4.336 98.8082 3.776C98.7055 3.20667 98.4862 2.74933 98.1502 2.404C97.8235 2.05867 97.3475 1.886 96.7222 1.886C96.0875 1.886 95.6022 2.05867 95.2662 2.404C94.9395 2.74933 94.7202 3.20667 94.6082 3.776C94.5055 4.336 94.4542 5.022 94.4542 5.834C94.4542 6.674 94.5055 7.37867 94.6082 7.948C94.7202 8.51733 94.9395 8.97467 95.2662 9.32C95.6022 9.66533 96.0875 9.838 96.7222 9.838C97.3475 9.838 97.8235 9.66533 98.1502 9.32C98.4862 8.97467 98.7055 8.51733 98.8082 7.948C98.9202 7.37867 98.9762 6.674 98.9762 5.834ZM101.831 9.978C103.017 9.026 103.945 8.24667 104.617 7.64C105.289 7.024 105.854 6.38467 106.311 5.722C106.778 5.05 107.011 4.392 107.011 3.748C107.011 3.14133 106.862 2.66533 106.563 2.32C106.274 1.96533 105.803 1.788 105.149 1.788C104.515 1.788 104.02 1.98867 103.665 2.39C103.32 2.782 103.133 3.30933 103.105 3.972H101.873C101.911 2.92667 102.228 2.11933 102.825 1.55C103.423 0.980666 104.193 0.695999 105.135 0.695999C106.097 0.695999 106.857 0.961999 107.417 1.494C107.987 2.026 108.271 2.75867 108.271 3.692C108.271 4.46667 108.038 5.22267 107.571 5.96C107.114 6.688 106.591 7.332 106.003 7.892C105.415 8.44267 104.664 9.08667 103.749 9.824H108.565V10.888H101.831V9.978ZM109.884 9.978C111.069 9.026 111.998 8.24667 112.67 7.64C113.342 7.024 113.907 6.38467 114.364 5.722C114.831 5.05 115.064 4.392 115.064 3.748C115.064 3.14133 114.915 2.66533 114.616 2.32C114.327 1.96533 113.855 1.788 113.202 1.788C112.567 1.788 112.073 1.98867 111.718 2.39C111.373 2.782 111.186 3.30933 111.158 3.972H109.926C109.963 2.92667 110.281 2.11933 110.878 1.55C111.475 0.980666 112.245 0.695999 113.188 0.695999C114.149 0.695999 114.91 0.961999 115.47 1.494C116.039 2.026 116.324 2.75867 116.324 3.692C116.324 4.46667 116.091 5.22267 115.624 5.96C115.167 6.688 114.644 7.332 114.056 7.892C113.468 8.44267 112.717 9.08667 111.802 9.824H116.618V10.888H109.884V9.978ZM132.253 3.328L129.859 11H128.543L126.695 4.91L124.847 11H123.531L121.123 3.328H122.425L124.189 9.768L126.093 3.328H127.395L129.257 9.782L130.993 3.328H132.253ZM140.517 6.87C140.517 7.11267 140.503 7.36933 140.475 7.64H134.343C134.39 8.396 134.647 8.98867 135.113 9.418C135.589 9.838 136.163 10.048 136.835 10.048C137.386 10.048 137.843 9.922 138.207 9.67C138.581 9.40867 138.842 9.06333 138.991 8.634H140.363C140.158 9.37133 139.747 9.97333 139.131 10.44C138.515 10.8973 137.75 11.126 136.835 11.126C136.107 11.126 135.454 10.9627 134.875 10.636C134.306 10.3093 133.858 9.84733 133.531 9.25C133.205 8.64333 133.041 7.94333 133.041 7.15C133.041 6.35667 133.2 5.66133 133.517 5.064C133.835 4.46667 134.278 4.00933 134.847 3.692C135.426 3.36533 136.089 3.202 136.835 3.202C137.563 3.202 138.207 3.36067 138.767 3.678C139.327 3.99533 139.757 4.434 140.055 4.994C140.363 5.54467 140.517 6.17 140.517 6.87ZM139.201 6.604C139.201 6.11867 139.094 5.70333 138.879 5.358C138.665 5.00333 138.371 4.73733 137.997 4.56C137.633 4.37333 137.227 4.28 136.779 4.28C136.135 4.28 135.585 4.48533 135.127 4.896C134.679 5.30667 134.423 5.876 134.357 6.604H139.201ZM143.473 4.756C143.734 4.29867 144.117 3.92533 144.621 3.636C145.125 3.34667 145.699 3.202 146.343 3.202C147.034 3.202 147.654 3.36533 148.205 3.692C148.756 4.01867 149.19 4.48067 149.507 5.078C149.824 5.666 149.983 6.352 149.983 7.136C149.983 7.91067 149.824 8.60133 149.507 9.208C149.19 9.81467 148.751 10.286 148.191 10.622C147.64 10.958 147.024 11.126 146.343 11.126C145.68 11.126 145.097 10.9813 144.593 10.692C144.098 10.4027 143.725 10.034 143.473 9.586V11H142.199V0.64H143.473V4.756ZM148.681 7.136C148.681 6.55733 148.564 6.05333 148.331 5.624C148.098 5.19467 147.78 4.868 147.379 4.644C146.987 4.42 146.553 4.308 146.077 4.308C145.61 4.308 145.176 4.42467 144.775 4.658C144.383 4.882 144.066 5.21333 143.823 5.652C143.59 6.08133 143.473 6.58067 143.473 7.15C143.473 7.72867 143.59 8.23733 143.823 8.676C144.066 9.10533 144.383 9.43667 144.775 9.67C145.176 9.894 145.61 10.006 146.077 10.006C146.553 10.006 146.987 9.894 147.379 9.67C147.78 9.43667 148.098 9.10533 148.331 8.676C148.564 8.23733 148.681 7.724 148.681 7.136ZM151.184 7.136C151.184 6.352 151.343 5.666 151.66 5.078C151.977 4.48067 152.411 4.01867 152.962 3.692C153.522 3.36533 154.147 3.202 154.838 3.202C155.435 3.202 155.991 3.342 156.504 3.622C157.017 3.89267 157.409 4.252 157.68 4.7V0.64H158.968V11H157.68V9.558C157.428 10.0153 157.055 10.3933 156.56 10.692C156.065 10.9813 155.487 11.126 154.824 11.126C154.143 11.126 153.522 10.958 152.962 10.622C152.411 10.286 151.977 9.81467 151.66 9.208C151.343 8.60133 151.184 7.91067 151.184 7.136ZM157.68 7.15C157.68 6.57133 157.563 6.06733 157.33 5.638C157.097 5.20867 156.779 4.882 156.378 4.658C155.986 4.42467 155.552 4.308 155.076 4.308C154.6 4.308 154.166 4.42 153.774 4.644C153.382 4.868 153.069 5.19467 152.836 5.624C152.603 6.05333 152.486 6.55733 152.486 7.136C152.486 7.724 152.603 8.23733 152.836 8.676C153.069 9.10533 153.382 9.43667 153.774 9.67C154.166 9.894 154.6 10.006 155.076 10.006C155.552 10.006 155.986 9.894 156.378 9.67C156.779 9.43667 157.097 9.10533 157.33 8.676C157.563 8.23733 157.68 7.72867 157.68 7.15ZM168.121 6.87C168.121 7.11267 168.107 7.36933 168.079 7.64H161.947C161.994 8.396 162.25 8.98867 162.717 9.418C163.193 9.838 163.767 10.048 164.439 10.048C164.99 10.048 165.447 9.922 165.811 9.67C166.184 9.40867 166.446 9.06333 166.595 8.634H167.967C167.762 9.37133 167.351 9.97333 166.735 10.44C166.119 10.8973 165.354 11.126 164.439 11.126C163.711 11.126 163.058 10.9627 162.479 10.636C161.91 10.3093 161.462 9.84733 161.135 9.25C160.808 8.64333 160.645 7.94333 160.645 7.15C160.645 6.35667 160.804 5.66133 161.121 5.064C161.438 4.46667 161.882 4.00933 162.451 3.692C163.03 3.36533 163.692 3.202 164.439 3.202C165.167 3.202 165.811 3.36067 166.371 3.678C166.931 3.99533 167.36 4.434 167.659 4.994C167.967 5.54467 168.121 6.17 168.121 6.87ZM166.805 6.604C166.805 6.11867 166.698 5.70333 166.483 5.358C166.268 5.00333 165.974 4.73733 165.601 4.56C165.237 4.37333 164.831 4.28 164.383 4.28C163.739 4.28 163.188 4.48533 162.731 4.896C162.283 5.30667 162.026 5.876 161.961 6.604H166.805ZM172.519 11.126C171.931 11.126 171.403 11.028 170.937 10.832C170.47 10.6267 170.101 10.3467 169.831 9.992C169.56 9.628 169.411 9.21267 169.383 8.746H170.699C170.736 9.12867 170.913 9.44133 171.231 9.684C171.557 9.92667 171.982 10.048 172.505 10.048C172.99 10.048 173.373 9.94067 173.653 9.726C173.933 9.51133 174.073 9.24067 174.073 8.914C174.073 8.578 173.923 8.33067 173.625 8.172C173.326 8.004 172.864 7.84067 172.239 7.682C171.669 7.53267 171.203 7.38333 170.839 7.234C170.484 7.07533 170.176 6.84667 169.915 6.548C169.663 6.24 169.537 5.83867 169.537 5.344C169.537 4.952 169.653 4.59267 169.887 4.266C170.12 3.93933 170.451 3.68267 170.881 3.496C171.31 3.3 171.8 3.202 172.351 3.202C173.2 3.202 173.886 3.41667 174.409 3.846C174.931 4.27533 175.211 4.86333 175.249 5.61H173.975C173.947 5.20867 173.783 4.88667 173.485 4.644C173.195 4.40133 172.803 4.28 172.309 4.28C171.851 4.28 171.487 4.378 171.217 4.574C170.946 4.77 170.811 5.02667 170.811 5.344C170.811 5.596 170.89 5.806 171.049 5.974C171.217 6.13267 171.422 6.26333 171.665 6.366C171.917 6.45933 172.262 6.56667 172.701 6.688C173.251 6.83733 173.699 6.98667 174.045 7.136C174.39 7.276 174.684 7.49067 174.927 7.78C175.179 8.06933 175.309 8.44733 175.319 8.914C175.319 9.334 175.202 9.712 174.969 10.048C174.735 10.384 174.404 10.65 173.975 10.846C173.555 11.0327 173.069 11.126 172.519 11.126ZM177.775 2.082C177.532 2.082 177.327 1.998 177.159 1.83C176.991 1.662 176.907 1.45667 176.907 1.214C176.907 0.971333 176.991 0.766 177.159 0.598C177.327 0.43 177.532 0.345999 177.775 0.345999C178.008 0.345999 178.204 0.43 178.363 0.598C178.531 0.766 178.615 0.971333 178.615 1.214C178.615 1.45667 178.531 1.662 178.363 1.83C178.204 1.998 178.008 2.082 177.775 2.082ZM178.391 3.328V11H177.117V3.328H178.391ZM183.726 3.202C184.389 3.202 184.968 3.34667 185.462 3.636C185.966 3.92533 186.34 4.28933 186.582 4.728V3.328H187.87V11.168C187.87 11.868 187.721 12.4887 187.422 13.03C187.124 13.5807 186.694 14.01 186.134 14.318C185.584 14.626 184.94 14.78 184.202 14.78C183.194 14.78 182.354 14.542 181.682 14.066C181.01 13.59 180.614 12.9413 180.492 12.12H181.752C181.892 12.5867 182.182 12.96 182.62 13.24C183.059 13.5293 183.586 13.674 184.202 13.674C184.902 13.674 185.472 13.4547 185.91 13.016C186.358 12.5773 186.582 11.9613 186.582 11.168V9.558C186.33 10.006 185.957 10.3793 185.462 10.678C184.968 10.9767 184.389 11.126 183.726 11.126C183.045 11.126 182.424 10.958 181.864 10.622C181.314 10.286 180.88 9.81467 180.562 9.208C180.245 8.60133 180.086 7.91067 180.086 7.136C180.086 6.352 180.245 5.666 180.562 5.078C180.88 4.48067 181.314 4.01867 181.864 3.692C182.424 3.36533 183.045 3.202 183.726 3.202ZM186.582 7.15C186.582 6.57133 186.466 6.06733 186.232 5.638C185.999 5.20867 185.682 4.882 185.28 4.658C184.888 4.42467 184.454 4.308 183.978 4.308C183.502 4.308 183.068 4.42 182.676 4.644C182.284 4.868 181.972 5.19467 181.738 5.624C181.505 6.05333 181.388 6.55733 181.388 7.136C181.388 7.724 181.505 8.23733 181.738 8.676C181.972 9.10533 182.284 9.43667 182.676 9.67C183.068 9.894 183.502 10.006 183.978 10.006C184.454 10.006 184.888 9.894 185.28 9.67C185.682 9.43667 185.999 9.10533 186.232 8.676C186.466 8.23733 186.582 7.72867 186.582 7.15ZM193.761 3.188C194.695 3.188 195.451 3.47267 196.029 4.042C196.608 4.602 196.897 5.414 196.897 6.478V11H195.637V6.66C195.637 5.89467 195.446 5.31133 195.063 4.91C194.681 4.49933 194.158 4.294 193.495 4.294C192.823 4.294 192.287 4.504 191.885 4.924C191.493 5.344 191.297 5.95533 191.297 6.758V11H190.023V3.328H191.297V4.42C191.549 4.028 191.89 3.72467 192.319 3.51C192.758 3.29533 193.239 3.188 193.761 3.188ZM199.384 11.084C199.142 11.084 198.936 11 198.768 10.832C198.6 10.664 198.516 10.4587 198.516 10.216C198.516 9.97333 198.6 9.768 198.768 9.6C198.936 9.432 199.142 9.348 199.384 9.348C199.618 9.348 199.814 9.432 199.972 9.6C200.14 9.768 200.224 9.97333 200.224 10.216C200.224 10.4587 200.14 10.664 199.972 10.832C199.814 11 199.618 11.084 199.384 11.084ZM205.082 3.202C205.745 3.202 206.323 3.34667 206.818 3.636C207.322 3.92533 207.695 4.28933 207.938 4.728V3.328H209.226V11.168C209.226 11.868 209.077 12.4887 208.778 13.03C208.479 13.5807 208.05 14.01 207.49 14.318C206.939 14.626 206.295 14.78 205.558 14.78C204.55 14.78 203.71 14.542 203.038 14.066C202.366 13.59 201.969 12.9413 201.848 12.12H203.108C203.248 12.5867 203.537 12.96 203.976 13.24C204.415 13.5293 204.942 13.674 205.558 13.674C206.258 13.674 206.827 13.4547 207.266 13.016C207.714 12.5773 207.938 11.9613 207.938 11.168V9.558C207.686 10.006 207.313 10.3793 206.818 10.678C206.323 10.9767 205.745 11.126 205.082 11.126C204.401 11.126 203.78 10.958 203.22 10.622C202.669 10.286 202.235 9.81467 201.918 9.208C201.601 8.60133 201.442 7.91067 201.442 7.136C201.442 6.352 201.601 5.666 201.918 5.078C202.235 4.48067 202.669 4.01867 203.22 3.692C203.78 3.36533 204.401 3.202 205.082 3.202ZM207.938 7.15C207.938 6.57133 207.821 6.06733 207.588 5.638C207.355 5.20867 207.037 4.882 206.636 4.658C206.244 4.42467 205.81 4.308 205.334 4.308C204.858 4.308 204.424 4.42 204.032 4.644C203.64 4.868 203.327 5.19467 203.094 5.624C202.861 6.05333 202.744 6.55733 202.744 7.136C202.744 7.724 202.861 8.23733 203.094 8.676C203.327 9.10533 203.64 9.43667 204.032 9.67C204.424 9.894 204.858 10.006 205.334 10.006C205.81 10.006 206.244 9.894 206.636 9.67C207.037 9.43667 207.355 9.10533 207.588 8.676C207.821 8.23733 207.938 7.72867 207.938 7.15ZM210.903 7.136C210.903 6.352 211.061 5.666 211.379 5.078C211.696 4.48067 212.13 4.01867 212.681 3.692C213.241 3.36533 213.866 3.202 214.557 3.202C215.154 3.202 215.709 3.342 216.223 3.622C216.736 3.89267 217.128 4.252 217.399 4.7V0.64H218.687V11H217.399V9.558C217.147 10.0153 216.773 10.3933 216.279 10.692C215.784 10.9813 215.205 11.126 214.543 11.126C213.861 11.126 213.241 10.958 212.681 10.622C212.13 10.286 211.696 9.81467 211.379 9.208C211.061 8.60133 210.903 7.91067 210.903 7.136ZM217.399 7.15C217.399 6.57133 217.282 6.06733 217.049 5.638C216.815 5.20867 216.498 4.882 216.097 4.658C215.705 4.42467 215.271 4.308 214.795 4.308C214.319 4.308 213.885 4.42 213.493 4.644C213.101 4.868 212.788 5.19467 212.555 5.624C212.321 6.05333 212.205 6.55733 212.205 7.136C212.205 7.724 212.321 8.23733 212.555 8.676C212.788 9.10533 213.101 9.43667 213.493 9.67C213.885 9.894 214.319 10.006 214.795 10.006C215.271 10.006 215.705 9.894 216.097 9.67C216.498 9.43667 216.815 9.10533 217.049 8.676C217.282 8.23733 217.399 7.72867 217.399 7.15ZM224.578 3.188C225.511 3.188 226.267 3.47267 226.846 4.042C227.424 4.602 227.714 5.414 227.714 6.478V11H226.454V6.66C226.454 5.89467 226.262 5.31133 225.88 4.91C225.497 4.49933 224.974 4.294 224.312 4.294C223.64 4.294 223.103 4.504 222.702 4.924C222.31 5.344 222.114 5.95533 222.114 6.758V11H220.84V3.328H222.114V4.42C222.366 4.028 222.706 3.72467 223.136 3.51C223.574 3.29533 224.055 3.188 224.578 3.188ZM239.295 8.83H235.039L234.255 11H232.911L236.439 1.298H237.909L241.423 11H240.079L239.295 8.83ZM238.931 7.794L237.167 2.866L235.403 7.794H238.931ZM244.235 0.64V11H242.961V0.64H244.235ZM247.68 0.64V11H246.406V0.64H247.68ZM254.858 4.574C255.082 4.13533 255.399 3.79467 255.81 3.552C256.23 3.30933 256.739 3.188 257.336 3.188V4.504H257C255.572 4.504 254.858 5.27867 254.858 6.828V11H253.584V3.328H254.858V4.574ZM259.465 2.082C259.222 2.082 259.017 1.998 258.849 1.83C258.681 1.662 258.597 1.45667 258.597 1.214C258.597 0.971333 258.681 0.766 258.849 0.598C259.017 0.43 259.222 0.345999 259.465 0.345999C259.698 0.345999 259.894 0.43 260.053 0.598C260.221 0.766 260.305 0.971333 260.305 1.214C260.305 1.45667 260.221 1.662 260.053 1.83C259.894 1.998 259.698 2.082 259.465 2.082ZM260.081 3.328V11H258.807V3.328H260.081ZM265.416 3.202C266.078 3.202 266.657 3.34667 267.152 3.636C267.656 3.92533 268.029 4.28933 268.272 4.728V3.328H269.56V11.168C269.56 11.868 269.41 12.4887 269.112 13.03C268.813 13.5807 268.384 14.01 267.824 14.318C267.273 14.626 266.629 14.78 265.892 14.78C264.884 14.78 264.044 14.542 263.372 14.066C262.7 13.59 262.303 12.9413 262.182 12.12H263.442C263.582 12.5867 263.871 12.96 264.31 13.24C264.748 13.5293 265.276 13.674 265.892 13.674C266.592 13.674 267.161 13.4547 267.6 13.016C268.048 12.5773 268.272 11.9613 268.272 11.168V9.558C268.02 10.006 267.646 10.3793 267.152 10.678C266.657 10.9767 266.078 11.126 265.416 11.126C264.734 11.126 264.114 10.958 263.554 10.622C263.003 10.286 262.569 9.81467 262.252 9.208C261.934 8.60133 261.776 7.91067 261.776 7.136C261.776 6.352 261.934 5.666 262.252 5.078C262.569 4.48067 263.003 4.01867 263.554 3.692C264.114 3.36533 264.734 3.202 265.416 3.202ZM268.272 7.15C268.272 6.57133 268.155 6.06733 267.922 5.638C267.688 5.20867 267.371 4.882 266.97 4.658C266.578 4.42467 266.144 4.308 265.668 4.308C265.192 4.308 264.758 4.42 264.366 4.644C263.974 4.868 263.661 5.19467 263.428 5.624C263.194 6.05333 263.078 6.55733 263.078 7.136C263.078 7.724 263.194 8.23733 263.428 8.676C263.661 9.10533 263.974 9.43667 264.366 9.67C264.758 9.894 265.192 10.006 265.668 10.006C266.144 10.006 266.578 9.894 266.97 9.67C267.371 9.43667 267.688 9.10533 267.922 8.676C268.155 8.23733 268.272 7.72867 268.272 7.15ZM275.521 3.188C276.099 3.188 276.622 3.314 277.089 3.566C277.555 3.80867 277.919 4.17733 278.181 4.672C278.451 5.16667 278.587 5.76867 278.587 6.478V11H277.327V6.66C277.327 5.89467 277.135 5.31133 276.753 4.91C276.37 4.49933 275.847 4.294 275.185 4.294C274.513 4.294 273.976 4.504 273.575 4.924C273.183 5.344 272.987 5.95533 272.987 6.758V11H271.713V0.64H272.987V4.42C273.239 4.028 273.584 3.72467 274.023 3.51C274.471 3.29533 274.97 3.188 275.521 3.188ZM282.222 4.378V8.9C282.222 9.27333 282.301 9.53933 282.46 9.698C282.619 9.84733 282.894 9.922 283.286 9.922H284.224V11H283.076C282.367 11 281.835 10.8367 281.48 10.51C281.125 10.1833 280.948 9.64667 280.948 8.9V4.378H279.954V3.328H280.948V1.396H282.222V3.328H284.224V4.378H282.222ZM288.483 11.126C287.895 11.126 287.368 11.028 286.901 10.832C286.435 10.6267 286.066 10.3467 285.795 9.992C285.525 9.628 285.375 9.21267 285.347 8.746H286.663C286.701 9.12867 286.878 9.44133 287.195 9.684C287.522 9.92667 287.947 10.048 288.469 10.048C288.955 10.048 289.337 9.94067 289.617 9.726C289.897 9.51133 290.037 9.24067 290.037 8.914C290.037 8.578 289.888 8.33067 289.589 8.172C289.291 8.004 288.829 7.84067 288.203 7.682C287.634 7.53267 287.167 7.38333 286.803 7.234C286.449 7.07533 286.141 6.84667 285.879 6.548C285.627 6.24 285.501 5.83867 285.501 5.344C285.501 4.952 285.618 4.59267 285.851 4.266C286.085 3.93933 286.416 3.68267 286.845 3.496C287.275 3.3 287.765 3.202 288.315 3.202C289.165 3.202 289.851 3.41667 290.373 3.846C290.896 4.27533 291.176 4.86333 291.213 5.61H289.939C289.911 5.20867 289.748 4.88667 289.449 4.644C289.16 4.40133 288.768 4.28 288.273 4.28C287.816 4.28 287.452 4.378 287.181 4.574C286.911 4.77 286.775 5.02667 286.775 5.344C286.775 5.596 286.855 5.806 287.013 5.974C287.181 6.13267 287.387 6.26333 287.629 6.366C287.881 6.45933 288.227 6.56667 288.665 6.688C289.216 6.83733 289.664 6.98667 290.009 7.136C290.355 7.276 290.649 7.49067 290.891 7.78C291.143 8.06933 291.274 8.44733 291.283 8.914C291.283 9.334 291.167 9.712 290.933 10.048C290.7 10.384 290.369 10.65 289.939 10.846C289.519 11.0327 289.034 11.126 288.483 11.126ZM298.088 4.574C298.312 4.13533 298.63 3.79467 299.04 3.552C299.46 3.30933 299.969 3.188 300.566 3.188V4.504H300.23C298.802 4.504 298.088 5.27867 298.088 6.828V11H296.814V3.328H298.088V4.574ZM309.037 6.87C309.037 7.11267 309.023 7.36933 308.995 7.64H302.863C302.91 8.396 303.166 8.98867 303.633 9.418C304.109 9.838 304.683 10.048 305.355 10.048C305.906 10.048 306.363 9.922 306.727 9.67C307.1 9.40867 307.362 9.06333 307.511 8.634H308.883C308.678 9.37133 308.267 9.97333 307.651 10.44C307.035 10.8973 306.27 11.126 305.355 11.126C304.627 11.126 303.974 10.9627 303.395 10.636C302.826 10.3093 302.378 9.84733 302.051 9.25C301.724 8.64333 301.561 7.94333 301.561 7.15C301.561 6.35667 301.72 5.66133 302.037 5.064C302.354 4.46667 302.798 4.00933 303.367 3.692C303.946 3.36533 304.608 3.202 305.355 3.202C306.083 3.202 306.727 3.36067 307.287 3.678C307.847 3.99533 308.276 4.434 308.575 4.994C308.883 5.54467 309.037 6.17 309.037 6.87ZM307.721 6.604C307.721 6.11867 307.614 5.70333 307.399 5.358C307.184 5.00333 306.89 4.73733 306.517 4.56C306.153 4.37333 305.747 4.28 305.299 4.28C304.655 4.28 304.104 4.48533 303.647 4.896C303.199 5.30667 302.942 5.876 302.877 6.604H307.721ZM313.435 11.126C312.847 11.126 312.319 11.028 311.853 10.832C311.386 10.6267 311.017 10.3467 310.747 9.992C310.476 9.628 310.327 9.21267 310.299 8.746H311.615C311.652 9.12867 311.829 9.44133 312.147 9.684C312.473 9.92667 312.898 10.048 313.421 10.048C313.906 10.048 314.289 9.94067 314.569 9.726C314.849 9.51133 314.989 9.24067 314.989 8.914C314.989 8.578 314.839 8.33067 314.541 8.172C314.242 8.004 313.78 7.84067 313.155 7.682C312.585 7.53267 312.119 7.38333 311.755 7.234C311.4 7.07533 311.092 6.84667 310.831 6.548C310.579 6.24 310.453 5.83867 310.453 5.344C310.453 4.952 310.569 4.59267 310.803 4.266C311.036 3.93933 311.367 3.68267 311.797 3.496C312.226 3.3 312.716 3.202 313.267 3.202C314.116 3.202 314.802 3.41667 315.325 3.846C315.847 4.27533 316.127 4.86333 316.165 5.61H314.891C314.863 5.20867 314.699 4.88667 314.401 4.644C314.111 4.40133 313.719 4.28 313.225 4.28C312.767 4.28 312.403 4.378 312.133 4.574C311.862 4.77 311.727 5.02667 311.727 5.344C311.727 5.596 311.806 5.806 311.965 5.974C312.133 6.13267 312.338 6.26333 312.581 6.366C312.833 6.45933 313.178 6.56667 313.617 6.688C314.167 6.83733 314.615 6.98667 314.961 7.136C315.306 7.276 315.6 7.49067 315.843 7.78C316.095 8.06933 316.225 8.44733 316.235 8.914C316.235 9.334 316.118 9.712 315.885 10.048C315.651 10.384 315.32 10.65 314.891 10.846C314.471 11.0327 313.985 11.126 313.435 11.126ZM325.033 6.87C325.033 7.11267 325.019 7.36933 324.991 7.64H318.859C318.906 8.396 319.162 8.98867 319.629 9.418C320.105 9.838 320.679 10.048 321.351 10.048C321.902 10.048 322.359 9.922 322.723 9.67C323.096 9.40867 323.358 9.06333 323.507 8.634H324.879C324.674 9.37133 324.263 9.97333 323.647 10.44C323.031 10.8973 322.266 11.126 321.351 11.126C320.623 11.126 319.97 10.9627 319.391 10.636C318.822 10.3093 318.374 9.84733 318.047 9.25C317.72 8.64333 317.557 7.94333 317.557 7.15C317.557 6.35667 317.716 5.66133 318.033 5.064C318.35 4.46667 318.794 4.00933 319.363 3.692C319.942 3.36533 320.604 3.202 321.351 3.202C322.079 3.202 322.723 3.36067 323.283 3.678C323.843 3.99533 324.272 4.434 324.571 4.994C324.879 5.54467 325.033 6.17 325.033 6.87ZM323.717 6.604C323.717 6.11867 323.61 5.70333 323.395 5.358C323.18 5.00333 322.886 4.73733 322.513 4.56C322.149 4.37333 321.743 4.28 321.295 4.28C320.651 4.28 320.1 4.48533 319.643 4.896C319.195 5.30667 318.938 5.876 318.873 6.604H323.717ZM327.989 4.574C328.213 4.13533 328.53 3.79467 328.941 3.552C329.361 3.30933 329.869 3.188 330.467 3.188V4.504H330.131C328.703 4.504 327.989 5.27867 327.989 6.828V11H326.715V3.328H327.989V4.574ZM334.793 9.824L337.173 3.328H338.531L335.521 11H334.037L331.027 3.328H332.399L334.793 9.824ZM346.785 6.87C346.785 7.11267 346.771 7.36933 346.743 7.64H340.611C340.658 8.396 340.914 8.98867 341.381 9.418C341.857 9.838 342.431 10.048 343.103 10.048C343.654 10.048 344.111 9.922 344.475 9.67C344.848 9.40867 345.11 9.06333 345.259 8.634H346.631C346.426 9.37133 346.015 9.97333 345.399 10.44C344.783 10.8973 344.018 11.126 343.103 11.126C342.375 11.126 341.722 10.9627 341.143 10.636C340.574 10.3093 340.126 9.84733 339.799 9.25C339.472 8.64333 339.309 7.94333 339.309 7.15C339.309 6.35667 339.468 5.66133 339.785 5.064C340.102 4.46667 340.546 4.00933 341.115 3.692C341.694 3.36533 342.356 3.202 343.103 3.202C343.831 3.202 344.475 3.36067 345.035 3.678C345.595 3.99533 346.024 4.434 346.323 4.994C346.631 5.54467 346.785 6.17 346.785 6.87ZM345.469 6.604C345.469 6.11867 345.362 5.70333 345.147 5.358C344.932 5.00333 344.638 4.73733 344.265 4.56C343.901 4.37333 343.495 4.28 343.047 4.28C342.403 4.28 341.852 4.48533 341.395 4.896C340.947 5.30667 340.69 5.876 340.625 6.604H345.469ZM347.991 7.136C347.991 6.352 348.149 5.666 348.467 5.078C348.784 4.48067 349.218 4.01867 349.769 3.692C350.329 3.36533 350.954 3.202 351.645 3.202C352.242 3.202 352.797 3.342 353.311 3.622C353.824 3.89267 354.216 4.252 354.487 4.7V0.64H355.775V11H354.487V9.558C354.235 10.0153 353.861 10.3933 353.367 10.692C352.872 10.9813 352.293 11.126 351.631 11.126C350.949 11.126 350.329 10.958 349.769 10.622C349.218 10.286 348.784 9.81467 348.467 9.208C348.149 8.60133 347.991 7.91067 347.991 7.136ZM354.487 7.15C354.487 6.57133 354.37 6.06733 354.137 5.638C353.903 5.20867 353.586 4.882 353.185 4.658C352.793 4.42467 352.359 4.308 351.883 4.308C351.407 4.308 350.973 4.42 350.581 4.644C350.189 4.868 349.876 5.19467 349.643 5.624C349.409 6.05333 349.293 6.55733 349.293 7.136C349.293 7.724 349.409 8.23733 349.643 8.676C349.876 9.10533 350.189 9.43667 350.581 9.67C350.973 9.894 351.407 10.006 351.883 10.006C352.359 10.006 352.793 9.894 353.185 9.67C353.586 9.43667 353.903 9.10533 354.137 8.676C354.37 8.23733 354.487 7.72867 354.487 7.15Z" fill="#807D74"/>
</svg>
